<svg xmlns="http://www.w3.org/2000/svg" fill="none" viewBox="0 0 560 414"><defs/><path fill="#FFDC85" d="M281.992 0l183.803 365.25H98.189L281.993 0z"/><path fill="#FFDC85" d="M88.963 0l183.803 365.25H39.609L88.963 0zM474.646 0L290.844 365.25H524L474.646 0z"/><path stroke="#000" stroke-miterlimit="10" stroke-width="6" d="M553.323 146.636L220.722 338.443 6 213.807 338.601 22l214.722 124.636zM220.722 337.918l331.696-191.282-213.817-124.11L6.904 213.806l213.818 124.111z"/><path stroke="#000" stroke-miterlimit="10" stroke-width="6" d="M553.323 159.404v58.343L220.722 409.554 6 284.918v-55.684"/><path stroke="#fff" stroke-miterlimit="10" stroke-width="6" d="M50.89 201.687v27.547M102.086 169.655v81.361M153.281 145.311v133.893M204.469 118.404v190.269M255.664 87.013V295.22M306.859 61.387V263.83M358.049 48.574v189.629M409.242 79.965v126.206M460.439 105.591v79.439M511.627 131.857v28.829M127.336 264.321h199.142M34.978 213.192h375.523M124.771 162.057h367.185M208.15 110.921h238.908M297.943 59.792h84.977"/><path stroke="#000" stroke-miterlimit="10" stroke-width="6" d="M221.619 349.033v44.204"/></svg>